<svg xmlns="http://www.w3.org/2000/svg" viewBox="0 0 256 256">
    <defs>
        <style>
            .bca417f3-8f28-44af-b11e-a439342c9130 {
                fill: #fff;
            }
        </style>
    </defs>
    <g id="a9c7c579-5d71-4393-bc0b-a96e5a795f0e" data-name="shopping-cart-white">
        <path class="bca417f3-8f28-44af-b11e-a439342c9130"
            d="M86.06,91v18.15a14,14,0,0,1,8.27-3,12.14,12.14,0,0,1,9.94,4.52q3.69,4.53,3.68,12.24v27.51H91.67V127.49a7.92,7.92,0,0,0-.59-3.75,2.47,2.47,0,0,0-2.28-.95q-2.74,0-2.74,4v23.6H69.78V91Z" />
        <path class="bca417f3-8f28-44af-b11e-a439342c9130"
            d="M133.72,107v43.4H117.44V107Zm-8.09-19.37A7.94,7.94,0,0,1,131.35,90a7.68,7.68,0,0,1,.13,11.07,9,9,0,0,1-11.71,0A7.71,7.71,0,0,1,119.9,90,8,8,0,0,1,125.63,87.66Z" />
        <path class="bca417f3-8f28-44af-b11e-a439342c9130"
            d="M167.42,134.15V151a20.84,20.84,0,0,1-3.66.35,22.27,22.27,0,0,1-16.32-6.44,23,23,0,0,1,.06-32.17,21.88,21.88,0,0,1,16-6.57q10.53,0,16.61,6.16t6.07,16.82v21.29H169.94V130.32a8.41,8.41,0,0,0-1.68-5.49,5.5,5.5,0,0,0-4.5-2,6.4,6.4,0,0,0-4.61,10.75,5.74,5.74,0,0,0,4.3,1.74A7.44,7.44,0,0,0,167.42,134.15Z" />
        <path class="bca417f3-8f28-44af-b11e-a439342c9130"
            d="M193.81,42.5H25a5,5,0,0,0-4.93,5.84l25,146A5,5,0,0,0,50,198.5H181a5,5,0,0,0,1.16-9.86L60,159.55v-78L194.86,52.39a5,5,0,0,0-1.05-9.89Zm0,10Z" />
        <path class="bca417f3-8f28-44af-b11e-a439342c9130"
            d="M231,22.5h0m0-5H211a5,5,0,0,0-5,4.56l-15,171a5,5,0,0,0,4.46,5.41l.52,0a5,5,0,0,0,5-4.4L220.58,31.24l11.89-4A5,5,0,0,0,231,17.5Zm0,10Z" />
        <path class="bca417f3-8f28-44af-b11e-a439342c9130" d="M70,204.5a17,17,0,1,0,17,17,17,17,0,0,0-17-17Z" />
        <path class="bca417f3-8f28-44af-b11e-a439342c9130" d="M176,204.5a17,17,0,1,0,17,17,17,17,0,0,0-17-17Z" />
    </g>
</svg>