<svg xmlns="http://www.w3.org/2000/svg" viewBox="0 0 256 256">
    <defs>
        <style>
            .b910c417-8b10-442b-b895-fc131977902f {
                fill: #0071bc;
            }

            .bc26edb0-afaf-466f-9e00-6826a4b83d16 {
                fill: #fff;
            }
        </style>
    </defs>
    <g id="ad72b1e9-4cbc-468c-b509-8864e583e763" data-name="shopping-cart-circle">
        <circle class="b910c417-8b10-442b-b895-fc131977902f" cx="128" cy="128" r="128" />
        <path class="bc26edb0-afaf-466f-9e00-6826a4b83d16"
            d="M95.38,105.23v14.12a10.89,10.89,0,0,1,6.43-2.34,9.48,9.48,0,0,1,7.74,3.52q2.85,3.52,2.86,9.52v21.39H99.75V133.6a6.29,6.29,0,0,0-.46-2.91,1.93,1.93,0,0,0-1.78-.75q-2.13,0-2.13,3.15v18.35H82.72V105.23Z" />
        <path class="bc26edb0-afaf-466f-9e00-6826a4b83d16"
            d="M132.45,117.69v33.75H119.79V117.69Zm-6.3-15.07a6.25,6.25,0,0,1,4.46,1.81,6,6,0,0,1,.1,8.62,7,7,0,0,1-9.11,0,6,6,0,0,1,.1-8.62A6.23,6.23,0,0,1,126.15,102.62Z" />
        <path class="bc26edb0-afaf-466f-9e00-6826a4b83d16"
            d="M158.66,138.78v13.1a15.93,15.93,0,0,1-2.85.28,17.29,17.29,0,0,1-12.69-5A17.64,17.64,0,0,1,155.64,117q8.21,0,12.92,4.79t4.72,13.09v16.55H160.62V135.8a6.51,6.51,0,0,0-1.3-4.26,4.31,4.31,0,0,0-3.51-1.6,5,5,0,0,0-3.59,8.37,4.5,4.5,0,0,0,3.36,1.35A5.73,5.73,0,0,0,158.66,138.78Z" />
        <path class="bc26edb0-afaf-466f-9e00-6826a4b83d16"
            d="M179.18,67.5H47.89a3.89,3.89,0,0,0-3.83,4.55L63.5,185.6a3.88,3.88,0,0,0,3.83,3.23H169.22a3.89,3.89,0,0,0,.9-7.67l-95-22.62V97.86L180,75.19a3.89,3.89,0,0,0-.82-7.69Zm0,7.78h0Z" />
        <path class="bc26edb0-afaf-466f-9e00-6826a4b83d16"
            d="M208.11,52h0m0-3.89H192.55a3.89,3.89,0,0,0-3.87,3.55L177,184.6a3.89,3.89,0,0,0,3.47,4.21,2.88,2.88,0,0,0,.41,0,3.89,3.89,0,0,0,3.86-3.42L200,58.74l9.24-3.08a3.88,3.88,0,0,0-1.14-7.6Zm0,7.77Z" />
        <path class="bc26edb0-afaf-466f-9e00-6826a4b83d16"
            d="M82.89,193.5a13.22,13.22,0,1,0,13.22,13.22A13.23,13.23,0,0,0,82.89,193.5Z" />
        <path class="bc26edb0-afaf-466f-9e00-6826a4b83d16"
            d="M165.33,193.5a13.22,13.22,0,1,0,13.22,13.22,13.23,13.23,0,0,0-13.22-13.22Z" />
    </g>
</svg>